<svg width="52" height="52" viewBox="0 0 52 52" fill="none" xmlns="http://www.w3.org/2000/svg">
<path d="M26.9593 17.3166H23.7605V30.1119L33.8901 36.1896L35.4895 33.5666L26.9593 28.5125V17.3166ZM37.2745 4.11606L47.0992 12.3157L44.3695 15.5892L34.5384 7.39379L37.2745 4.11606ZM14.5116 4.11606L17.2456 7.39166L7.41875 15.5892L4.68909 12.3136L14.5116 4.11606ZM25.8931 8.78635C15.2943 8.78635 6.70008 17.3805 6.70008 27.9793C6.70008 38.5781 15.2943 47.1723 25.8931 47.1723C36.4918 47.1723 45.086 38.5781 45.086 27.9793C45.086 17.3805 36.4918 8.78635 25.8931 8.78635ZM25.8931 42.9072C17.6614 42.9072 10.9652 36.211 10.9652 27.9793C10.9652 19.7477 17.6614 13.0515 25.8931 13.0515C34.1247 13.0515 40.8209 19.7477 40.8209 27.9793C40.8209 36.211 34.1247 42.9072 25.8931 42.9072Z" fill="#2C6D52"/>
</svg>
